<?xml version="1.0" encoding="UTF-8"?><svg id="Layer_1" xmlns="http://www.w3.org/2000/svg" viewBox="0 0 20.38 16.57"><defs><style>.cls-1{stroke-width:0px;}</style></defs><path class="cls-1" d="m20.38,1.97c-.76.34-1.57.56-2.4.66.87-.52,1.53-1.34,1.84-2.31-.82.49-1.72.83-2.66,1.01-1.58-1.69-4.22-1.78-5.91-.2-1.1,1.02-1.56,2.55-1.22,4.01-3.36-.17-6.5-1.76-8.62-4.37-.37.64-.57,1.36-.57,2.1,0,1.45.74,2.73,1.86,3.48-.66-.02-1.31-.2-1.89-.52v.05c0,1.99,1.4,3.71,3.36,4.1-.62.17-1.26.19-1.89.07.55,1.7,2.12,2.87,3.91,2.91-1.75,1.38-3.98,2-6.19,1.73,1.91,1.23,4.14,1.88,6.41,1.88,7.69,0,11.9-6.37,11.9-11.9,0-.18,0-.36-.01-.54.82-.59,1.53-1.32,2.09-2.16,0,0,0,0,0,0Z"/></svg>